# xmcd CD database file
#
# Track frame offsets:
#	150
#	11015
#	22222
#	28227
#	48660
#	59177
#	70635
#	80810
#	93505
#	108647
#	118527
#	127692
#	143210
#	157445
#	165350
#	175757
#
# Disc length: 2417 seconds
#
# Revision: 7
# Processed by: cddbd v1.5.1PL0 Copyright (c) Steve Scherf et al.
# Submitted via: CDex 1.40Release
#
DISCID=e6096f10
DTITLE=Various Artist - This Is Country (Vol One)
DYEAR=1900
DGENRE=Country
TTITLE0=Guy Mitchell - Singing The Blues
TTITLE1=Frankie Laine - Love Is A Golden Ring
TTITLE2=Jim Reeves - Have I Told You Lately
TTITLE3=Federation - Who's On The Other Line
TTITLE4=Rick Nelson - Travlin Man
TTITLE5=Patsy Cline - I've Loved And Lost Again
TTITLE6=Carl Perkins - Dady Sang Bass
TTITLE7=Farron Young - It's Four In The Morning
TTITLE8=Federation - Dueling Banjo's
TTITLE9=Guy Mitchell - Rock A Billy
TTITLE10=Frankie Laine - Rawhide
TTITLE11=Tina Turner - This Is Our Last Time
TTITLE12=George Jones - Open Pit Mine
TTITLE13=George Jones - Jambalaya
TTITLE14=Ferlin Husky - Wings Of A Dove
TTITLE15=Frankie Laine - Mule Train
EXTD=ID3G: 2
EXTT0=
EXTT1=
EXTT2=
EXTT3=
EXTT4=
EXTT5=
EXTT6=
EXTT7=
EXTT8=
EXTT9=
EXTT10=
EXTT11=
EXTT12=
EXTT13=
EXTT14=
EXTT15=
PLAYORDER=
